<svg width="31" height="31" viewBox="0 0 31 31" fill="none" xmlns="http://www.w3.org/2000/svg">
<line x1="5" y1="25.5" x2="26" y2="25.5" stroke="#181D27"/>
<line x1="5.5" y1="25" x2="5.5" y2="5" stroke="#181D27"/>
<line x1="25.5" y1="25" x2="25.5" y2="5" stroke="#181D27"/>
<path d="M25.5 25.5H5.5V16.5H10.6387L10.7568 16.5713L15.5215 19.4297L20.2764 17.0527L20.3564 17.0127L24.9443 16.5029L25.5 16.4414V25.5Z" fill="#0E9384" stroke="#181D27"/>
<path d="M10.2568 7.57129L15.1611 10.5137L19.9043 10.9883L24.7764 8.55273L25.5 8.19141V17.5527L24.9502 17.4971L20.0947 17.0107L15.2236 19.4473L14.9785 19.5703L14.7432 19.4287L9.9209 16.5352L6.12109 17.4854L5.5 17.6406V8.60938L9.87891 7.51465L10.0801 7.46484L10.2568 7.57129Z" fill="#CCFBEF" stroke="#181D27"/>
</svg>
