<svg width="31" height="31" viewBox="0 0 31 31" fill="none" xmlns="http://www.w3.org/2000/svg">
<line x1="5" y1="25.5" x2="26" y2="25.5" stroke="#181D27"/>
<line x1="5.5" y1="25" x2="5.5" y2="5" stroke="#181D27"/>
<line x1="25.5" y1="25" x2="25.5" y2="5" stroke="#181D27"/>
<path d="M25.5 25.5H5.5V16.5H10.1387L10.2568 16.5713L15.0312 19.4355L20.293 17.0449L20.3652 17.0117L24.9443 16.5029L25.5 16.4414V25.5Z" fill="#0E9384" stroke="#181D27"/>
<path d="M10.2568 7.57129L15.1611 10.5137L19.9043 10.9883L24.7764 8.55273L25.5 8.19141V17.5527L24.9502 17.4971L20.0947 17.0107L15.2236 19.4473L14.9785 19.5703L14.7432 19.4287L9.9209 16.5352L6.12109 17.4854L5.5 17.6406V8.60938L9.87891 7.51465L10.0801 7.46484L10.2568 7.57129Z" fill="#CCFBEF" stroke="#181D27"/>
<path d="M25.5 5.5V9.91016L25.0977 9.99023L20.0244 11.0049L19.9502 10.9971L14.9502 10.4971L14.9258 10.4951L14.9023 10.4902L10.0703 9.52344L6.22363 11.4473L5.5 11.8086V5.5H25.5Z" fill="#F0FDF9" stroke="#181D27"/>
</svg>
