<svg width="31" height="31" viewBox="0 0 31 31" fill="none" xmlns="http://www.w3.org/2000/svg">
<rect x="24.5" y="10.5" width="4" height="5" transform="rotate(180 24.5 10.5)" fill="#0E9384" stroke="#181D27"/>
<rect x="24.5" y="20.5" width="4" height="10" transform="rotate(180 24.5 20.5)" fill="#CCFBEF" stroke="#181D27"/>
<rect x="24.5" y="23.5" width="4" height="3" transform="rotate(180 24.5 23.5)" fill="#F0FDF9" stroke="#181D27"/>
<rect x="17.5" y="23.5" width="4" height="6" transform="rotate(180 17.5 23.5)" fill="#F0FDF9" stroke="#181D27"/>
<rect x="10.5" y="23.5" width="4" height="7" transform="rotate(180 10.5 23.5)" fill="#F0FDF9" stroke="#181D27"/>
<rect x="10.5" y="16.5" width="4" height="6" transform="rotate(180 10.5 16.5)" fill="#CCFBEF" stroke="#181D27"/>
<rect x="17.5" y="17.5" width="4" height="8" transform="rotate(180 17.5 17.5)" fill="#CCFBEF" stroke="#181D27"/>
<rect x="17.5" y="9.5" width="4" height="4" transform="rotate(180 17.5 9.5)" fill="#0E9384" stroke="#181D27"/>
<rect x="10.5" y="10.5" width="4" height="5" transform="rotate(180 10.5 10.5)" fill="#0E9384" stroke="#181D27"/>
<line x1="26" y1="5.5" x2="5" y2="5.5" stroke="#181D27"/>
</svg>
