<svg width="31" height="31" viewBox="0 0 31 31" fill="none" xmlns="http://www.w3.org/2000/svg">
<rect x="19.5" y="24.5" width="4" height="5" transform="rotate(-90 19.5 24.5)" fill="#0E9384" stroke="#181D27"/>
<rect x="12.5" y="24.5" width="4" height="7" transform="rotate(-90 12.5 24.5)" fill="#CCFBEF" stroke="#181D27"/>
<rect x="9.5" y="24.5" width="4" height="3" transform="rotate(-90 9.5 24.5)" fill="#F0FDF9" stroke="#181D27"/>
<rect x="12.5" y="17.5" width="4" height="3" transform="rotate(-90 12.5 17.5)" fill="#F0FDF9" stroke="#181D27"/>
<rect x="6.5" y="10.5" width="4" height="7" transform="rotate(-90 6.5 10.5)" fill="#F0FDF9" stroke="#181D27"/>
<rect x="13.5" y="10.5" width="4" height="6" transform="rotate(-90 13.5 10.5)" fill="#CCFBEF" stroke="#181D27"/>
<rect x="15.5" y="17.5" width="4" height="5" transform="rotate(-90 15.5 17.5)" fill="#CCFBEF" stroke="#181D27"/>
<rect x="20.5" y="17.5" width="4" height="4" transform="rotate(-90 20.5 17.5)" fill="#0E9384" stroke="#181D27"/>
<rect x="19.5" y="10.5" width="4" height="5" transform="rotate(-90 19.5 10.5)" fill="#0E9384" stroke="#181D27"/>
<line x1="24.5" y1="26" x2="24.5" y2="5" stroke="#181D27"/>
</svg>
